<?xml version="1.0" encoding="UTF-8" standalone="no"?>
<svg
   width="220.20744"
   height="216.17389"
   viewBox="0 0 220.20744 216.17389"
   fill="none"
   stroke="#ffffff"
   stroke-width="1"
   stroke-linecap="round"
   stroke-linejoin="round"
   class="icon icon-tabler icons-tabler-outline icon-tabler-brand-disqus"
   version="1.1"
   id="svg3"
   xmlns="http://www.w3.org/2000/svg"
   xmlns:svg="http://www.w3.org/2000/svg">
  <defs
     id="defs3" />
  <g
     id="g3"
     transform="translate(-73.438684,119.78059)">
    <g
       id="g4">
      <g
         id="g5"
         transform="matrix(11.377572,0,0,11.377572,-1464.647,245.95092)">
        <path
           d="m 107.6555,-14.092493 c -2.259,0 -4.323,-0.667 -5.919,-2 l -3.28252,1.971883 c 0,0 0.132553,-3.505575 0.191175,-5.258629 0.04139,-1.237636 0.112349,-2.425254 0.113349,-3.713254 0,-4.97 3.839996,-9 8.897996,-9 5.052,0 9.152,4.03 9.152,9 0,4.972 -4.098,9 -9.153,9"
           id="path2"
           style="fill:#74acdf;fill-opacity:1" />
        <text
           xml:space="preserve"
           style="font-weight:500;font-size:12.6315px;line-height:1.1;font-family:Montserrat;-inkscape-font-specification:'Montserrat Medium';letter-spacing:0px;word-spacing:0.172299px;writing-mode:lr-tb;direction:ltr;fill:#fdc700;fill-opacity:1;stroke-width:7.60286;stroke-linejoin:round;paint-order:markers fill stroke"
           x="103.97375"
           y="-18.924099"
           id="text3"><tspan
             id="tspan3"
             x="103.97375"
             y="-18.924099"
             style="font-style:normal;font-variant:normal;font-weight:500;font-stretch:normal;font-family:'Clash Display';-inkscape-font-specification:'Clash Display Medium';fill:#fdc700;fill-opacity:1;stroke:none;stroke-width:7.60286">b</tspan></text>
      </g>
      <g
         id="g6">
        <path
           d="m 183.8184,90.704506 c -25.70193,0 -49.18524,-7.58884 -67.34385,-22.755144 L 79.127446,90.384603 c 0,0 1.508131,-39.884932 2.175107,-59.83043 0.470918,-14.081293 1.278259,-27.593502 1.289637,-42.247815 0,-56.546533 43.68983,-102.398148 101.23759,-102.398148 57.47949,0 104.12754,45.851615 104.12754,102.398148 0,14.142322 -2.91408,27.613367 -8.18385,39.864879 m -55.4198,54.488614 c -12.48905,5.142871 -26.15686,8.044655 -40.53527,8.044655"
           id="path2-9"
           style="fill:none;fill-opacity:1;stroke-width:11.3776" />
        <text
           xml:space="preserve"
           style="font-weight:500;font-size:143.716px;line-height:1.1;font-family:Montserrat;-inkscape-font-specification:'Montserrat Medium';letter-spacing:0px;word-spacing:1.96034px;writing-mode:lr-tb;direction:ltr;fill:#ffffff;fill-opacity:1;stroke-width:86.5021;stroke-linejoin:round;paint-order:markers fill stroke"
           x="141.929"
           y="35.732563"
           id="text3-4"><tspan
             id="tspan3-9"
             x="141.929"
             y="35.732563"
             style="font-style:normal;font-variant:normal;font-weight:500;font-stretch:normal;font-family:'Clash Display';-inkscape-font-specification:'Clash Display Medium';fill:#ffffff;fill-opacity:1;stroke:none;stroke-width:86.5021">b</tspan></text>
        <text
           xml:space="preserve"
           style="font-weight:500;font-size:143.716px;line-height:1.1;font-family:Montserrat;-inkscape-font-specification:'Montserrat Medium';letter-spacing:0px;word-spacing:1.96034px;writing-mode:lr-tb;direction:ltr;fill:#ffffff;fill-opacity:1;stroke-width:86.5021;stroke-linejoin:round;paint-order:markers fill stroke"
           x="228.83017"
           y="113.53643"
           id="text3-4-9"><tspan
             id="tspan3-9-1"
             x="228.83017"
             y="113.53643"
             style="font-style:normal;font-variant:normal;font-weight:500;font-stretch:normal;font-family:'Clash Display';-inkscape-font-specification:'Clash Display Medium';fill:#ffffff;fill-opacity:1;stroke:none;stroke-width:86.5021">+</tspan></text>
      </g>
    </g>
  </g>
</svg>
